<?xml version="1.0" encoding="utf-8"?>
<!-- Generator: Adobe Illustrator 19.0.0, SVG Export Plug-In . SVG Version: 6.00 Build 0)  -->
<svg version="1.1" id="Calque_1" xmlns="http://www.w3.org/2000/svg" xmlns:xlink="http://www.w3.org/1999/xlink" x="0px" y="0px"
	 viewBox="0 377.1 595.3 87.8" style="enable-background:new 0 377.1 595.3 87.8;" xml:space="preserve">
<style type="text/css">
	.st0{fill:#FFFFFF;}
</style>
<g>
	<g>
		<path class="st0" d="M321.5,377.4h3.9v26.8h-3.9V377.4z"/>
		<path class="st0" d="M332.2,377.4h3.9l19.6,21.7v-21.7h3.9v26.8h-3.9l-19.6-21.7v21.7h-3.9V377.4z"/>
		<path class="st0" d="M366.5,377.4h3.9l19.6,21.7v-21.7h3.9v26.8H390l-19.6-21.7v21.7h-3.9V377.4z"/>
		<path class="st0" d="M414.4,377.1c8.6,0,14.3,1.2,14.3,13.7c0,11.9-5.1,13.4-14.3,13.4c-9.2,0-14.3-1.2-14.3-13.4
			C400.1,378.3,406,377.1,414.4,377.1z M414.4,401.5c7.7,0,10.4-1.5,10.4-10.7c0-11-3.6-11-10.4-11s-10.7,0-10.7,11
			C404,400.3,406.3,401.5,414.4,401.5z"/>
		<path class="st0" d="M435.5,377.4l10.7,22.6l11.3-22.6h4.2L448,404.2h-3.9L431,377.4H435.5z"/>
		<path class="st0" d="M472.7,377.4h3.9l13.1,26.8h-4.5l-3.3-7.4h-14.6l-3.3,7.4h-4.5L472.7,377.4z M480.5,394.1l-6-12.5l-6.3,12.5
			H480.5z"/>
		<path class="st0" d="M488.2,377.4h25.6v2.7h-11v24.1h-3.9v-24.1h-10.7L488.2,377.4L488.2,377.4z"/>
		<path class="st0" d="M519.2,377.4h3.9v26.8h-3.9V377.4z"/>
		<path class="st0" d="M543.6,377.1c8.6,0,14.3,1.2,14.3,13.7c0,11.9-5.1,13.4-14.3,13.4s-14.3-1.2-14.3-13.4
			C529.3,378.3,534.9,377.1,543.6,377.1z M543.6,401.5c7.7,0,10.4-1.5,10.4-10.7c0-11-3.6-11-10.4-11c-6.8,0-10.7,0-10.7,11
			C532.9,400.3,535.5,401.5,543.6,401.5z"/>
		<path class="st0" d="M564.1,377.4h3.9l19.6,21.7v-21.7h3.9v26.8h-3.9L568,382.4v21.8h-3.9V377.4z"/>
	</g>
	<g>
		<path class="st0" d="M143.8,399.7c0-17.3,19.3-22.3,44.4-22.3c28,0,65.8,0.3,65.8,0.3v16.4c0,0-43.5,0.3-54.5,0.3
			c-12.8,0-19.3,0.3-19.3,7.1v3c0,5.4,3.3,7.1,15.8,7.1h23.5c32.7,0,39.9,14.6,39.9,24.1v5.1c0,20.8-23.2,24.1-45.2,24.1
			c-33.9,0-65.5-0.3-65.5-0.3l0.3-17.9c0,0,36.3-0.3,57.2-0.3c9.5,0,17,0.3,17-4.8V438c0-4.2-2.4-6.8-13.4-6.8h-22.9
			c-40.8,0-43.2-17.3-43.2-24.1L143.8,399.7L143.8,399.7L143.8,399.7z"/>
		<path class="st0" d="M272.4,377.4H309v86.9h-36.6V377.4z"/>
		<path class="st0" d="M38.4,377.1l32.1,62.2l34.5-62.2h38.7L92,464.3H48.8L0,377.1H38.4z"/>
	</g>
</g>
</svg>
